<svg
  id="logo"
  xmlns="http://www.w3.org/2000/svg"
  xmlns:xlink="http://www.w3.org/1999/xlink"
  viewBox="0 0 1024 1024"
  width="1024"
  height="1024"
>
  <style>
    .logo {
      --background-color: #d9deff;
      --fill-color: #1f2040;
      --outline-width: 75;
      fill-rule: "nonzero";
      fill: var(--fill-color, red);
      opacity: 1;
      stroke: none;
    }
    .logo .silhouette {
      fill: var(--background-color);
      stroke: var(--background-color);
      stroke-linecap: butt;
      stroke-linejoin: round;
      stroke-width: var(--outline-width);
    }
    @media (prefers-color-scheme: dark) {
      .logo {
        --background-color: #afb4de;
        --fill-color: #1f2040;
      }
    }
    @media (prefers-color-scheme: light) {
      .logo {
        --background-color: #d9deff;
        --fill-color: #1f2040;
      }
    }
  </style>
  <symbol id="sinetris-logo" class="logo" viewBox="80 80 850 850">
    <path
      class="silhouette"
      paint-order="stroke"
      d="
        M 811.1829 469.3012
        C 806.6401 469.8532 804.6407 472.4055 803.233 476.2119
        C 801.2733 481.511 798.6398 486.5583 796.3779 491.7496
        C 795.5276 493.7014 794.5637 495.7241 798 497
        C 802.8314 494.9701 810.1727 494.3602 817.6969 494.6063
        C 833.2658 495.1156 847.0366 500.3473 858.8737 510.3712
        C 866.2589 516.6251 868.2292 525.5695 869.1706 534.5883
        C 870.1714 544.1776 868.2598 553.1422 863.848 562.0523
        C 849.662 590.7025 836.3506 619.7729 820.0656 647.3629
        C 811.0524 662.6328 800.9241 676.7963 785.1877 685.6374
        C 776.2435 690.6625 766.9431 695.2567 756.4969 696.7716
        C 749.2374 697.8245 742.2634 696.5549 734.8108 694.6443
        C 732.6534 701.415 730.2137 707.9301 728.5164 714.6333
        C 724.8748 729.0148 717.3621 741.295 708.5193 752.8939
        C 700.2373 763.7576 691.923 774.5999 683.4343 785.3019
        C 671.342 800.5472 656.1047 812.1342 639.319 821.6247
        C 608.4401 839.0835 577.7028 856.8516 544.4278 869.6042
        C 506.9192 883.9793 468.4813 888.8287 428.7243 881.5745
        C 415.9551 879.2446 403.1721 877.1428 390.7172 873.3124
        C 373.9169 868.1455 358.6481 860.2075 345.3459 848.736
        C 333.6142 838.6188 321.8165 828.5346 310.6841 817.7774
        C 297.7849 805.313 290.5977 788.8586 281.8383 773.562
        C 277.859 766.613 273.8629 759.7155 269.0136 753.318
        C 257.6418 738.3154 252.4721 720.7885 248.9487 702.6875
        C 246.4365 689.7817 244.0075 676.8737 240.192 664.2676
        C 239.0642 660.5414 240.6207 656.9968 241.6085 653.5419
        C 243.1117 648.2842 245.1024 643.166 246.8976 637.955
        C 245.7578 635.845 243.4455 635.7578 241.6853 635.5677
        C 232.9932 634.6298 226.4689 630.0831 220.8808 623.8057
        C 205.0665 606.0405 194.0079 585.8209 189.278 562.3544
        C 189.0486 561.2162 188.7607 560.0237 188.8753 558.8946
        C 189.2551 555.1501 187.7603 553.3259 184.0479 552.1448
        C 177.4753 550.0536 172.8393 541.9763 173.8396 533.8818
        C 175.1968 522.8989 174.6398 511.9249 174.632 500.9481
        C 174.6249 490.9481 174.9127 480.9765 175.6957 471.007
        C 176.0086 467.0234 176.9708 464.4486 181.8263 464.5831
        C 186.4383 464.7109 190.1271 462.2112 192.6586 458.386
        C 196.4568 452.6467 201.7054 451.299 208.2718 452.0368
        C 219.5691 453.3063 230.8786 451.2857 242.2006 451.5542
        C 244.1559 451.6006 246.1143 450.7311 246.2934 448.6091
        C 246.8767 441.6957 249.5946 435.3983 251.5394 428.8744
        C 251.7625 428.126 251.5697 427.2537 251.5697 425.745
        C 244.7627 424.874 237.9427 425.1527 231.2322 424.6834
        C 223.5528 424.1464 216.574 421.7377 209.6338 418.9471
        C 202.5326 416.0918 196.1374 411.7657 188.9958 408.9082
        C 184.3831 407.0626 181.2644 403.071 178.634 399.0181
        C 165.4523 378.7081 158.766 356.3091 157.7013 332.1875
        C 157.6293 330.5566 157.7407 328.774 158.3247 327.2799
        C 164.4447 311.6223 170.9644 296.3052 180.2454 282.0013
        C 189.5974 267.5881 203.2673 259.7628 217.5209 252.1796
        C 244.8936 237.6166 273.2365 225.0456 301.2408 211.7837
        C 313.2314 206.1053 326.0935 202.6227 338.5593 198.2249
        C 368.3943 187.6993 396.7763 173.7097 426.3592 162.6223
        C 448.0031 154.5104 470.2938 149.6078 493.1555 146.5001
        C 514.1536 143.6457 535.1745 141.7083 556.3422 142.042
        C 588.7338 142.5526 620.3728 147.538 650.393 160.2192
        C 663.9484 165.9453 675.6429 175.0325 687.9928 182.893
        C 714.3984 199.6996 737.2393 220.9404 760.8762 241.2514
        C 782.0024 259.405 798.7471 280.9717 814.0914 303.8841
        C 820.9501 314.1259 827.7834 324.3738 835.0742 334.3344
        C 844.0496 346.5963 848.2716 360.7765 849.248 375.8642
        C 849.6663 382.3265 850.2457 388.8284 849.3671 395.3095
        C 848.6962 400.2585 850.7752 404.8083 851.3224 409.5796
        C 853.2915 426.7487 846.6291 440.7908 835.5847 453.262
        Z
      "
    ></path>
    <path
      d="
          M811.182861,469.301239
          C806.640076,469.853210 804.640686,472.405457 803.232971,476.211945
          C801.273315,481.511017 798.639771,486.558289 796.377930,491.749573
          C795.527588,493.701385 794.563660,495.724060 796.122192,498.607208
          C802.831421,494.970093 810.172729,494.360168 817.696899,494.606293
          C833.265808,495.115601 847.036560,500.347290 858.873718,510.371155
          C866.258850,516.625061 868.229248,525.569519 869.170593,534.588257
          C870.171448,544.177612 868.259827,553.142151 863.848022,562.052307
          C849.662048,590.702515 836.350647,619.772888 820.065552,647.362915
          C811.052429,662.632812 800.924133,676.796326 785.187744,685.637390
          C776.243469,690.662537 766.943115,695.256714 756.496887,696.771606
          C749.237427,697.824463 742.263428,696.554932 734.810791,694.644287
          C732.653381,701.414978 730.213745,707.930115 728.516418,714.633301
          C724.874817,729.014832 717.362061,741.294983 708.519348,752.893921
          C700.237305,763.757568 691.922974,774.599854 683.434265,785.301941
          C671.341980,800.547180 656.104736,812.134155 639.319031,821.624695
          C608.440063,839.083496 577.702820,856.851624 544.427795,869.604248
          C506.919189,883.979309 468.481323,888.828674 428.724274,881.574524
          C415.955139,879.244629 403.172119,877.142761 390.717224,873.312378
          C373.916901,868.145508 358.648071,860.207458 345.345886,848.735962
          C333.614227,838.618774 321.816528,828.534607 310.684143,817.777405
          C297.784851,805.312988 290.597656,788.858643 281.838287,773.562012
          C277.859039,766.612976 273.862915,759.715515 269.013611,753.317993
          C257.641754,738.315430 252.472061,720.788513 248.948669,702.687500
          C246.436539,689.781738 244.007523,676.873657 240.192001,664.267639
          C239.064163,660.541443 240.620651,656.996826 241.608490,653.541870
          C243.111710,648.284241 245.102417,643.165955 246.897644,637.954956
          C245.757767,635.844971 243.445511,635.757812 241.685257,635.567749
          C232.993164,634.629761 226.468887,630.083130 220.880829,623.805664
          C205.066483,606.040466 194.007858,585.820862 189.278046,562.354370
          C189.048645,561.216248 188.760712,560.023743 188.875259,558.894592
          C189.255112,555.150146 187.760345,553.325928 184.047882,552.144836
          C177.475311,550.053650 172.839264,541.976257 173.839554,533.881836
          C175.196808,522.898865 174.639832,511.924927 174.632019,500.948120
          C174.624893,490.948120 174.912704,480.976532 175.695740,471.007019
          C176.008636,467.023407 176.970825,464.448578 181.826279,464.583069
          C186.438324,464.710876 190.127090,462.211212 192.658569,458.386017
          C196.456787,452.646667 201.705368,451.298981 208.271790,452.036835
          C219.569138,453.306305 230.878555,451.285675 242.200577,451.554230
          C244.155945,451.600647 246.114334,450.731079 246.293396,448.609070
          C246.876709,441.695740 249.594559,435.398254 251.539444,428.874359
          C251.762527,428.126007 251.569687,427.253693 251.569687,425.744965
          C244.762650,424.874023 237.942749,425.152679 231.232178,424.683411
          C223.552750,424.146362 216.573975,421.737701 209.633820,418.947144
          C202.532608,416.091797 196.137390,411.765656 188.995789,408.908173
          C184.383148,407.062561 181.264359,403.070953 178.633957,399.018066
          C165.452255,378.708069 158.765961,356.309082 157.701294,332.187500
          C157.629318,330.556610 157.740738,328.773956 158.324707,327.279877
          C164.444717,311.622345 170.964355,296.305176 180.245361,282.001343
          C189.597366,267.588104 203.267319,259.762848 217.520950,252.179581
          C244.893600,237.616638 273.236511,225.045624 301.240753,211.783661
          C313.231384,206.105286 326.093475,202.622742 338.559265,198.224884
          C368.394287,187.699326 396.776306,173.709747 426.359192,162.622345
          C448.003082,154.510391 470.293762,149.607803 493.155457,146.500092
          C514.153625,143.645706 535.174500,141.708282 556.342224,142.041962
          C588.733765,142.552567 620.372803,147.538025 650.393005,160.219208
          C663.948364,165.945251 675.642883,175.032486 687.992798,182.892960
          C714.398376,199.699570 737.239319,220.940384 760.876221,241.251389
          C782.002441,259.404968 798.747131,280.971741 814.091370,303.884125
          C820.950134,314.125916 827.783386,324.373840 835.074219,334.334442
          C844.049561,346.596283 848.271606,360.776459 849.248047,375.864227
          C849.666321,382.326538 850.245728,388.828430 849.367126,395.309509
          C848.696228,400.258484 850.775208,404.808319 851.322388,409.579590
          C853.291443,426.748718 846.629089,440.790741 835.584717,453.262024
          C828.991089,460.707520 821.908569,467.417664 811.182861,469.301239
          M572.480591,163.209473
          C561.358948,162.353668 550.225281,160.662384 539.118164,160.821152
          C517.933655,161.123962 497.103088,164.922943 476.287659,168.777817
          C446.022919,174.382645 417.789520,186.626373 388.394714,195.069351
          C370.980133,200.071320 354.227448,207.340790 336.922882,212.782104
          C330.470520,214.811005 326.621002,218.474533 324.051331,224.143539
          C322.958557,226.554260 322.175659,229.128998 321.476440,231.690491
          C318.422913,242.876678 308.841431,250.565689 296.885895,251.307266
          C296.172180,249.920837 297.411987,249.174759 297.961517,248.256958
          C299.271545,246.068924 300.750214,243.798904 299.249054,241.294037
          C297.691742,238.695557 294.859802,239.416702 292.412018,239.448318
          C291.426544,239.461044 290.420349,239.671738 289.464813,239.939438
          C252.069824,250.415695 218.062286,266.503906 193.283020,297.925385
          C186.624405,306.368896 181.411392,315.472595 178.901245,327.640503
          C186.349823,320.084991 193.129883,313.994293 201.263809,309.677765
          C218.879990,300.329163 237.847427,294.490387 256.789185,288.696381
          C274.243530,283.357391 292.113403,280.649353 310.489319,281.543732
          C324.332428,282.217468 337.903137,284.763855 351.583893,286.587158
          C389.057281,291.581299 426.242401,298.158508 462.895264,307.443787
          C500.852478,317.059479 537.423706,331.204559 574.943665,342.277283
          C594.940674,348.178711 615.054993,353.898529 635.963684,354.470703
          C655.040161,354.992737 673.724365,357.459412 692.386963,361.095215
          C709.218689,364.374298 726.168579,367.317078 743.441711,364.769592
          C748.627869,364.004730 753.633667,364.522491 758.762695,365.400482
          C763.158325,366.152954 767.726196,366.138916 772.163269,364.989349
          C785.852356,361.442719 799.564087,357.980560 813.218018,354.303528
          C816.515808,353.415436 819.975342,352.668823 822.879150,350.620819
          C822.367126,347.814941 820.603271,345.957672 819.238892,343.911957
          C805.167664,322.814392 789.672852,302.701080 773.506348,283.266968
          C742.728577,246.268188 707.254639,214.405762 665.041809,190.555084
          C636.542175,174.452545 605.812866,166.121262 572.480591,163.209473
          M499.387878,404.710876
          C502.422791,403.546021 505.457672,402.381165 508.492584,401.216309
          C457.365021,398.060760 406.367798,395.543976 355.289764,399.768280
          C358.479736,401.374115 361.771912,402.417694 364.935974,403.762726
          C372.978455,407.181519 380.561401,411.365845 386.027222,418.447418
          C390.063568,423.677002 388.745514,427.795654 382.520630,429.901917
          C376.043640,432.093506 369.342529,432.320892 362.799591,430.757324
          C341.458954,425.657623 320.096466,425.365021 298.443848,428.705780
          C291.360260,429.798645 284.647491,432.743835 277.421356,432.684967
          C268.571136,432.612885 268.563538,432.495270 265.981445,441.216583
          C265.509521,442.810638 265.167786,444.442871 264.714966,446.043030
          C263.787720,449.319519 265.075287,450.845612 268.401428,450.700012
          C273.057648,450.496185 277.710541,450.052155 282.366394,450.029755
          C315.360504,449.870850 348.354980,449.750671 381.349457,449.712463
          C393.553467,449.698334 397.320526,452.669739 400.143250,464.533142
          C400.740295,467.042419 401.818085,467.797882 404.181824,467.777161
          C415.510559,467.677795 426.844086,467.514771 438.143250,468.628937
          C440.172424,468.829010 441.897797,468.381958 442.363220,466.122375
          C444.359283,456.431091 451.932648,454.354980 460.014832,453.761536
          C470.113861,453.020111 480.287598,453.797943 490.399109,452.720825
          C494.034241,452.333588 497.754486,451.769836 501.349335,452.136017
          C526.585999,454.706940 551.903992,454.420715 577.213806,454.847504
          C593.853394,455.128052 610.588867,454.712891 627.102661,457.034882
          C643.441895,459.332245 659.682434,461.805389 676.242615,459.761536
          C679.030396,459.417511 681.902588,459.707336 684.733826,459.780487
          C687.352478,459.848083 688.898193,460.839600 689.440063,463.808075
          C690.122131,467.544708 691.460327,471.177887 692.696899,474.793610
          C695.313293,482.444550 695.500671,490.488190 693.509460,497.941681
          C689.883240,511.515289 687.760071,525.263000 686.287109,539.145874
          C685.396118,547.543396 685.675293,547.565308 677.573059,548.511414
          C676.085266,548.685181 674.605164,549.155579 673.127136,549.132385
          C670.120972,549.085083 668.706299,550.385071 668.022583,553.357727
          C666.606384,559.514893 664.845947,565.594666 663.162903,571.688538
          C658.560303,588.353638 654.297241,605.078491 646.069397,620.549011
          C639.535950,632.833435 630.331604,641.177368 617.015625,645.491150
          C603.726562,649.796143 590.147095,652.036987 576.294739,652.286133
          C543.008667,652.884766 510.238800,648.516785 477.833710,641.140991
          C475.719604,640.659729 473.537262,640.047241 471.987488,638.463074
          C462.466370,628.730347 453.672333,618.155334 450.033447,604.940002
          C444.742615,585.725342 439.984528,566.312317 438.029388,546.346985
          C437.122498,537.085999 434.879150,535.128967 425.575836,533.350281
          C424.268494,533.100403 422.970245,532.797913 421.657593,532.581970
          C413.195587,531.189575 406.208374,535.128479 402.728668,542.795349
          C399.133057,550.717529 396.629395,558.969421 394.308411,567.321655
          C388.662598,587.638428 379.168121,606.070312 366.009186,622.494629
          C359.039856,631.193359 350.688965,638.776306 339.285583,640.698853
          C323.199646,643.410889 306.897461,644.569336 290.559540,643.949829
          C283.434143,643.679626 282.993866,644.040710 285.770355,650.921265
          C290.751678,663.265747 294.408936,675.558044 289.514526,689.108826
          C286.916626,696.301453 286.304596,704.186157 290.290253,711.431091
          C294.228180,718.589355 297.978912,725.792419 300.452179,733.631348
          C301.345123,736.461548 302.962006,739.066467 306.661346,739.531738
          C306.982178,738.830933 307.444824,738.266235 307.481079,737.675354
          C308.217041,725.690674 312.780396,714.732849 316.462799,703.519897
          C321.270691,688.879883 331.883179,679.730591 345.642883,674.863037
          C359.310944,670.027954 373.583038,669.135559 387.700684,674.557983
          C399.778809,679.197083 412.259766,679.337219 424.851776,676.760986
          C422.317139,676.314270 419.757172,676.345520 417.198212,676.309082
          C403.169373,676.109314 390.056274,673.516479 380.208527,662.261047
          C377.768188,659.471863 375.847900,656.515381 374.721344,652.883850
          C370.880890,640.503906 373.026703,629.058777 380.290070,618.689880
          C384.209229,613.095093 389.114471,608.191101 394.316895,602.107727
          C395.326172,606.744385 393.525635,609.137451 392.364136,611.534363
          C386.624695,623.378601 384.626770,635.430115 389.189117,648.192200
          C390.992249,653.236023 393.634766,657.293335 399.131836,658.354370
          C408.299377,660.123962 417.561951,661.410217 426.930267,660.640076
          C432.604218,660.173645 438.116058,659.077881 442.569580,654.918457
          C445.361267,652.311096 445.762085,648.517578 448.035370,644.642151
          C452.887054,655.490295 446.263855,663.371887 443.060974,671.686462
          C444.184113,672.715332 445.190308,672.139954 446.126617,672.066956
          C464.323639,670.646973 482.313385,670.704956 499.921967,676.839661
          C506.734650,679.213013 512.731750,682.128906 517.353333,687.797913
          C522.509155,694.122192 527.453430,700.745605 533.390625,706.270874
          C539.419617,711.881714 542.824524,718.554260 545.130127,726.119446
          C545.663940,727.871094 546.322876,729.589539 546.764893,731.362976
          C547.395935,733.895081 548.919739,734.749878 551.489258,734.720520
          C556.317932,734.665344 561.149414,734.949768 565.980774,735.023071
          C594.624146,735.457764 620.000793,726.675964 641.914062,708.101746
          C643.707031,706.582031 645.423584,705.055847 646.562988,702.949463
          C650.295593,696.049438 654.785950,689.630920 659.166199,683.139221
          C667.282410,671.110901 674.909485,658.866638 679.775208,645.015259
          C690.316589,615.007019 701.996460,585.428284 713.880981,555.925903
          C716.367676,549.752808 720.099915,545.089966 725.232300,541.183289
          C730.935059,536.842529 736.608215,536.328369 742.914001,539.923401
          C747.868896,542.748169 751.750427,547.033264 756.348877,550.254272
          C765.974731,556.996704 767.842651,565.840393 765.069458,576.465210
          C764.859253,577.270508 764.658752,578.081177 764.512878,578.899963
          C759.871582,604.946045 754.874817,630.907776 746.628235,656.122131
          C746.164734,657.539490 745.153198,659.123901 747.097229,660.591125
          C755.311279,666.790466 774.739868,666.148560 782.403381,658.891846
          C800.920959,641.357178 815.682373,621.329407 823.652527,596.688232
          C827.388672,585.137207 831.111572,573.474304 836.872864,562.742554
          C840.249878,556.452087 843.099792,550.093689 843.295532,543.023071
          C843.558105,533.537354 843.536255,523.934204 836.061035,516.425598
          C828.621033,508.952484 819.546753,505.814728 809.154419,504.963715
          C799.150024,504.144501 791.396667,507.495483 784.666687,514.675476
          C782.434692,517.056641 779.444946,521.614685 776.420227,519.832397
          C772.999207,517.816528 775.795349,513.093628 776.808899,509.874146
          C781.213013,495.884369 782.949707,481.236694 787.542358,467.305450
          C787.934082,466.117188 788.509460,464.762573 787.625366,463.494873
          C785.873535,462.109772 783.815002,462.282471 781.845703,462.318115
          C759.288879,462.726440 737.512756,458.176727 716.056213,451.812256
          C693.372192,445.083710 671.354797,436.422913 649.131470,428.361389
          C645.387451,427.003265 641.621155,425.458893 637.061829,425.672455
          C638.896362,428.790405 640.399231,431.536713 638.085266,434.427246
          C635.708923,437.395874 632.257446,437.775665 628.943542,437.094910
          C611.468872,433.505310 593.729919,431.873383 576.047180,429.905396
          C566.303833,428.821014 556.768250,425.146698 546.909180,426.289398
          C529.230469,428.338501 510.792206,426.096069 494.245361,435.118408
          C492.721283,435.949463 490.703827,436.006256 488.893921,436.148499
          C486.757416,436.316376 484.817352,435.544739 483.956482,433.464600
          C482.490448,429.922241 481.368744,426.347748 482.151428,422.325409
          C483.977142,412.942627 491.048126,408.746124 499.387878,404.710876
          M836.266785,395.133911
          C834.901245,381.714752 832.459839,368.575775 826.188354,355.216583
          C821.566101,364.614197 814.823547,369.450317 805.656311,372.372620
          C766.881775,384.733276 727.769897,389.316071 687.523499,380.661896
          C674.038086,377.762085 660.257507,375.649170 646.467407,375.503174
          C624.849243,375.274292 604.236694,370.673859 583.932251,363.841339
          C565.788818,357.735992 548.126221,350.141693 529.544434,345.418182
          C490.678009,335.538361 451.696167,326.118835 412.474274,317.732697
          C399.470398,314.952271 386.596832,311.278351 373.273804,310.415344
          C359.975464,309.553955 346.719269,308.374451 333.517792,306.634186
          C322.305664,305.156189 311.198608,302.742493 299.859558,302.414093
          C277.653503,301.770844 257.295441,308.902405 237.262131,317.481476
          C223.467178,323.389069 210.905731,331.658508 197.029846,337.509338
          C180.106644,344.645020 173.905151,366.174225 187.492142,382.548370
          C188.576447,379.658264 189.518509,376.823364 190.691986,374.087799
          C193.052643,368.584686 194.390289,362.236084 198.441147,357.953644
          C208.912094,346.884094 220.357849,336.960846 235.993042,333.557068
          C243.000610,332.031525 249.974365,330.952148 257.172089,330.486328
          C289.212952,328.412659 321.052521,330.033966 352.821777,334.373047
          C373.925964,337.255432 394.821533,341.365692 415.848907,344.687653
          C445.107086,349.309937 474.412170,353.733917 503.198395,360.823730
          C527.888367,366.904663 552.907898,371.996948 575.849976,383.763977
          C583.549438,387.713074 591.741394,390.652618 600.094177,393.019470
          C635.720520,403.114532 670.535889,415.382904 704.178894,430.965729
          C714.576477,435.781738 724.979492,440.763672 736.140625,443.753357
          C755.996033,449.071869 776.395264,451.078247 796.712219,453.504669
          C799.770325,453.869904 803.415771,455.807648 805.960083,453.993866
          C813.942627,448.303131 821.493225,442.005127 829.170959,435.891907
          C829.634583,435.522766 829.778809,434.725616 830.019348,434.107239
          C834.783264,421.858215 837.404724,409.246674 836.266785,395.133911
          M528.893433,608.631165
          C534.704651,608.978516 540.535645,609.815186 546.323364,609.581177
          C563.440674,608.889038 580.575562,608.174072 597.636292,606.692505
          C610.373047,605.586426 620.475342,599.023560 623.598389,586.273560
          C625.180542,579.814575 627.004395,573.408325 628.382629,566.906921
          C632.968750,545.273132 635.041626,523.240295 638.583557,501.438843
          C639.142944,497.995453 637.308289,497.093323 634.223511,497.212402
          C624.078003,497.604034 613.927307,498.174133 603.780212,498.144196
          C584.971252,498.088684 566.164062,497.562439 547.354797,497.425629
          C538.870911,497.363922 530.334229,498.427368 521.910156,497.796448
          C510.544708,496.945190 499.283112,498.143433 487.975677,498.129028
          C484.926300,498.125153 483.449738,499.191284 483.317017,502.460663
          C482.317200,527.090149 481.440247,551.719177 482.545746,576.367493
          C482.855957,583.284119 484.745544,589.784485 488.162140,595.840637
          C489.894165,598.910706 492.270325,600.865540 495.810608,601.677612
          C506.503601,604.130310 517.016724,607.406555 528.893433,608.631165
          M324.724426,603.065063
          C335.624359,603.181946 343.889374,599.105286 348.849182,588.853516
          C356.034058,574.002502 359.999207,558.080627 362.237000,542.048706
          C364.132141,528.471497 362.816620,514.450012 362.991516,500.625977
          C363.033722,497.290039 362.178894,495.378723 358.252777,495.322937
          C345.934021,495.147919 333.613922,494.233795 321.304688,494.395538
          C293.187592,494.764984 265.058868,494.151062 236.951691,495.350769
          C231.821152,495.569763 226.724991,496.808899 221.537643,495.609955
          C219.206711,495.071198 218.267975,496.664490 218.048203,498.775055
          C217.703934,502.081360 217.574127,505.429016 216.961090,508.685303
          C212.546463,532.134705 214.336823,555.337891 219.492599,578.431580
          C221.192398,586.045410 225.207260,591.333130 232.597870,594.822510
          C247.372894,601.798218 263.198547,604.203186 279.030396,605.455872
          C293.912659,606.633423 308.927826,604.616211 324.724426,603.065063
          M406.616852,757.953430
          C419.975098,750.553955 433.119995,751.405518 445.992950,759.131653
          C450.703186,761.958557 455.129395,765.265320 459.879883,768.016907
          C464.938171,770.946716 470.286621,773.745300 476.370331,771.425171
          C492.221619,765.379944 506.545197,756.645691 519.812683,746.135071
          C520.145264,745.871521 520.215271,745.276672 520.584229,744.432800
          C514.844116,738.239319 508.586334,732.624329 501.053253,728.496887
          C499.310944,727.542297 497.619293,726.464966 496.016937,725.290466
          C487.548981,719.083740 480.575012,710.728149 468.050110,711.816223
          C458.112305,712.679626 448.006683,714.126099 437.923706,712.438354
          C436.890961,712.265503 435.717010,713.081665 434.585114,713.333008
          C427.290985,714.952332 419.940063,717.477417 412.469391,715.252930
          C405.743530,713.250305 399.157806,712.635925 392.301117,714.055786
          C389.760529,714.581909 387.322296,713.687866 385.138336,712.384216
          C381.385162,710.144043 377.726593,709.729675 373.929382,712.314941
          C372.244385,713.462158 370.349640,713.808960 368.219330,713.432800
          C362.893951,712.492310 359.496033,714.972351 358.053833,719.991638
          C356.136871,726.663452 352.750275,732.500916 348.772491,738.119568
          C346.086304,741.913879 344.031311,746.154358 341.353821,749.955566
          C338.991058,753.309937 339.793579,755.478943 342.788849,757.866455
          C353.477295,766.386169 365.624237,771.436829 379.034607,773.602051
          C383.382202,774.303955 387.106659,773.175354 390.526062,770.152405
          C395.382782,765.858765 400.246979,761.508423 406.616852,757.953430
        z
      "
    />
    <path
      d="
        M819.389404,540.759094
          C820.585754,545.500427 821.903198,549.803528 822.820740,554.190247
          C824.133728,560.467834 821.877197,564.292236 816.227417,567.103210
          C810.137390,570.133301 804.748169,574.460571 798.354126,576.967712
          C797.117371,577.452698 795.925049,578.050171 794.704102,578.576721
          C791.805969,579.826538 787.379333,578.375793 786.156372,582.496155
          C784.112854,589.381226 779.654358,595.842896 781.908997,603.599426
          C782.233643,604.716431 782.840881,605.778320 783.002014,606.910583
          C783.447571,610.041199 787.291199,614.018555 781.010864,615.631226
          C774.786072,617.229553 768.364197,614.698975 768.154724,609.806458
          C767.752869,600.416626 765.345276,590.926880 768.622375,581.584900
          C772.327515,571.022400 773.712708,559.957397 775.845276,549.041382
          C778.081787,537.593262 791.375305,529.467834 802.794434,532.104980
          C806.520569,532.965515 810.213684,533.971680 813.947083,534.797424
          C817.019653,535.477051 819.160034,536.931213 819.389404,540.759094
        z
      "
    />
  </symbol>
  <use href="#sinetris-logo" x="0" y="0"/>
</svg>
